<?xml version="1.0" encoding="UTF-8"?>
<!DOCTYPE svg PUBLIC "-//W3C//DTD SVG 1.1//EN" "http://www.w3.org/Graphics/SVG/1.1/DTD/svg11.dtd">
<svg xmlns="http://www.w3.org/2000/svg" version="1.1" width="188px" height="41px" style="shape-rendering:geometricPrecision; text-rendering:geometricPrecision; image-rendering:optimizeQuality; fill-rule:evenodd; clip-rule:evenodd" xmlns:xlink="http://www.w3.org/1999/xlink">
<g><path style="opacity:0.078" fill="#ededed" d="M 0.5,-0.5 C 9.83333,-0.5 19.1667,-0.5 28.5,-0.5C 26.9488,2.56282 24.7821,5.22949 22,7.5C 21.51,8.79323 21.3433,10.1266 21.5,11.5C 18.5466,11.1496 16.2133,12.1496 14.5,14.5C 13.3126,12.0246 11.3126,11.0246 8.5,11.5C 8.65668,10.1266 8.49001,8.79323 8,7.5C 5.29503,4.96376 2.79503,2.29709 0.5,-0.5 Z"/></g>
<g><path style="opacity:0.078" fill="#ebebeb" d="M 32.5,-0.5 C 41.5,-0.5 50.5,-0.5 59.5,-0.5C 58.287,2.22545 56.4536,4.55878 54,6.5C 53.5065,8.13414 53.3398,9.80081 53.5,11.5C 50.2118,11.0156 47.5452,12.0156 45.5,14.5C 44.3126,12.0246 42.3126,11.0246 39.5,11.5C 39.9754,8.6874 38.9754,6.6874 36.5,5.5C 34.7484,3.75405 33.4151,1.75405 32.5,-0.5 Z"/></g>
<g><path style="opacity:0.078" fill="#eaeaea" d="M 63.5,-0.5 C 72.8333,-0.5 82.1667,-0.5 91.5,-0.5C 89.7525,1.95701 87.7525,4.29034 85.5,6.5C 84.6906,8.07092 84.3573,9.73759 84.5,11.5C 81.7097,11.2224 79.2097,11.8891 77,13.5C 75.0786,11.9972 72.912,11.3305 70.5,11.5C 70.6567,10.1266 70.49,8.79323 70,7.5C 67.567,4.91553 65.4003,2.24886 63.5,-0.5 Z"/></g>
<g><path style="opacity:0.078" fill="#ebebeb" d="M 94.5,-0.5 C 103.833,-0.5 113.167,-0.5 122.5,-0.5C 120.949,2.56282 118.782,5.22949 116,7.5C 115.51,8.79323 115.343,10.1266 115.5,11.5C 112.675,11.0807 110.509,12.0807 109,14.5C 107.152,11.9586 104.652,10.9586 101.5,11.5C 101.5,10.1667 101.5,8.83333 101.5,7.5C 99.1667,4.83333 96.8333,2.16667 94.5,-0.5 Z"/></g>
<g><path style="opacity:0.078" fill="#ececec" d="M 125.5,-0.5 C 135.167,-0.5 144.833,-0.5 154.5,-0.5C 152.167,2.16667 149.833,4.83333 147.5,7.5C 146.566,8.56764 146.232,9.90097 146.5,11.5C 144.901,11.2322 143.568,11.5655 142.5,12.5C 141.542,12.9528 140.708,13.6195 140,14.5C 139.292,13.6195 138.458,12.9528 137.5,12.5C 136.432,11.5655 135.099,11.2322 133.5,11.5C 133.851,8.18837 132.518,5.85504 129.5,4.5C 128.167,2.83333 126.833,1.16667 125.5,-0.5 Z"/></g>
<g><path style="opacity:0.078" fill="#ebebeb" d="M 157.5,-0.5 C 166.833,-0.5 176.167,-0.5 185.5,-0.5C 183.539,1.96348 181.372,4.29681 179,6.5C 178.506,8.13414 178.34,9.80081 178.5,11.5C 175.348,10.9586 172.848,11.9586 171,14.5C 169.491,12.0807 167.325,11.0807 164.5,11.5C 164.657,10.1266 164.49,8.79323 164,7.5C 161.218,5.22949 159.051,2.56282 157.5,-0.5 Z"/></g>
<g><path style="opacity:0.078" fill="#383838" d="M -0.5,-0.5 C -0.166667,-0.5 0.166667,-0.5 0.5,-0.5C 2.79503,2.29709 5.29503,4.96376 8,7.5C 8.49001,8.79323 8.65668,10.1266 8.5,11.5C 11.3126,11.0246 13.3126,12.0246 14.5,14.5C 14.1667,14.5 13.8333,14.5 13.5,14.5C 11.9582,13.6993 10.2915,13.366 8.5,13.5C 7.91618,16.285 8.91618,17.9517 11.5,18.5C 11.5,19.1667 11.8333,19.5 12.5,19.5C 12.7329,21.0618 13.3995,22.3951 14.5,23.5C 13.8333,23.5 13.5,23.8333 13.5,24.5C 12.1805,23.0582 10.5138,22.3915 8.5,22.5C 8.5,24.1667 8.5,25.8333 8.5,27.5C 7.83333,27.5 7.16667,27.5 6.5,27.5C 6.16202,24.8431 6.82869,22.5098 8.5,20.5C 6.82869,18.4902 6.16202,16.1569 6.5,13.5C 3.81198,13.8342 1.47865,13.1675 -0.5,11.5C -0.5,10.1667 -0.5,8.83333 -0.5,7.5C 3.5,5.5 3.5,3.5 -0.5,1.5C -0.5,0.833333 -0.5,0.166667 -0.5,-0.5 Z"/></g>
<g><path style="opacity:0.049" fill="#dcdcdc" d="M 187.5,1.5 C 187.5,3.5 187.5,5.5 187.5,7.5C 182.402,5.8479 182.402,3.8479 187.5,1.5 Z"/></g>
<g><path style="opacity:0.078" fill="#d4d4d4" d="M -0.5,1.5 C 3.5,3.5 3.5,5.5 -0.5,7.5C -0.5,5.5 -0.5,3.5 -0.5,1.5 Z"/></g>
<g><path style="opacity:0.078" fill="#dcdcdc" d="M 33.5,5.5 C 32.5,5.83333 31.8333,6.5 31.5,7.5C 26.8028,6.12571 26.4695,4.12571 30.5,1.5C 32.2882,2.28255 33.2882,3.61589 33.5,5.5 Z"/></g>
<g><path style="opacity:0.078" fill="#313131" d="M 154.5,-0.5 C 155.5,-0.5 156.5,-0.5 157.5,-0.5C 159.051,2.56282 161.218,5.22949 164,7.5C 164.49,8.79323 164.657,10.1266 164.5,11.5C 167.325,11.0807 169.491,12.0807 171,14.5C 172.848,11.9586 175.348,10.9586 178.5,11.5C 178.5,12.1667 178.5,12.8333 178.5,13.5C 175.687,13.0246 173.687,14.0246 172.5,16.5C 172.5,16.8333 172.5,17.1667 172.5,17.5C 170.938,17.7329 169.605,18.3995 168.5,19.5C 168.5,18.8333 168.167,18.5 167.5,18.5C 170.484,14.8109 169.484,13.1442 164.5,13.5C 164.5,14.5 164.5,15.5 164.5,16.5C 163.833,16.5 163.5,16.8333 163.5,17.5C 162.566,16.4324 162.232,15.099 162.5,13.5C 159.579,13.8541 157.246,12.8541 155.5,10.5C 153.742,12.7377 151.408,13.7377 148.5,13.5C 148.946,16.0101 148.28,18.0101 146.5,19.5C 145.849,20.0906 145.182,20.7573 144.5,21.5C 143.818,20.7573 143.151,20.0906 142.5,19.5C 140.833,16.8333 139.167,16.8333 137.5,19.5C 136.833,19.5 136.5,19.1667 136.5,18.5C 138.957,16.6676 138.957,15.0009 136.5,13.5C 136.5,12.8333 136.833,12.5 137.5,12.5C 138.458,12.9528 139.292,13.6195 140,14.5C 140.708,13.6195 141.542,12.9528 142.5,12.5C 143.167,12.5 143.5,12.8333 143.5,13.5C 140.916,15.4191 141.25,17.0858 144.5,18.5C 145.183,18.1373 145.85,17.8039 146.5,17.5C 147.479,14.3752 147.813,11.0419 147.5,7.5C 149.833,4.83333 152.167,2.16667 154.5,-0.5 Z"/></g>
<g><path style="opacity:0.078" fill="#dcdcdc" d="M 154.5,1.5 C 159.197,2.87429 159.531,4.87429 155.5,7.5C 152.025,5.91581 151.692,3.91581 154.5,1.5 Z"/></g>
<g><path style="opacity:0.078" fill="#323232" d="M 28.5,-0.5 C 29.8333,-0.5 31.1667,-0.5 32.5,-0.5C 33.4151,1.75405 34.7484,3.75405 36.5,5.5C 35.5,5.5 34.5,5.5 33.5,5.5C 33.2882,3.61589 32.2882,2.28255 30.5,1.5C 26.4695,4.12571 26.8028,6.12571 31.5,7.5C 31.3059,11.0048 30.3059,11.3382 28.5,8.5C 24.9249,5.49221 23.2582,6.49221 23.5,11.5C 23.5,12.1667 23.5,12.8333 23.5,13.5C 23.5,14.8333 23.5,16.1667 23.5,17.5C 22.8333,17.5 22.1667,17.5 21.5,17.5C 22.2341,16.2921 22.5674,14.9587 22.5,13.5C 17.0209,12.6099 15.6876,14.2766 18.5,18.5C 19.0906,19.1515 19.7573,19.8182 20.5,20.5C 19.7573,21.1818 19.0906,21.8485 18.5,22.5C 18.0472,23.4584 17.3805,24.2917 16.5,25C 17.3805,25.7083 18.0472,26.5416 18.5,27.5C 17.8333,27.5 17.5,27.8333 17.5,28.5C 16.5416,28.0472 15.7083,27.3805 15,26.5C 13.4912,28.9193 11.3245,29.9193 8.5,29.5C 8.65668,30.8734 8.49001,32.2068 8,33.5C 5.62781,35.7032 3.46114,38.0365 1.5,40.5C 0.833333,40.5 0.166667,40.5 -0.5,40.5C -0.5,39.8333 -0.5,39.1667 -0.5,38.5C 3.5,36.8333 3.5,35.1667 -0.5,33.5C -0.5,32.1667 -0.5,30.8333 -0.5,29.5C 1.47865,27.8325 3.81198,27.1658 6.5,27.5C 7.16667,27.5 7.83333,27.5 8.5,27.5C 10.9328,27.7271 12.5994,26.7271 13.5,24.5C 13.5,23.8333 13.8333,23.5 14.5,23.5C 18.1085,21.576 18.2752,19.576 15,17.5C 13.699,17.6387 12.8656,18.3054 12.5,19.5C 11.8333,19.5 11.5,19.1667 11.5,18.5C 12.6005,17.3951 13.2671,16.0618 13.5,14.5C 13.8333,14.5 14.1667,14.5 14.5,14.5C 16.2133,12.1496 18.5466,11.1496 21.5,11.5C 21.3433,10.1266 21.51,8.79323 22,7.5C 24.7821,5.22949 26.9488,2.56282 28.5,-0.5 Z"/></g>
<g><path style="opacity:0.078" fill="#e0e0e0" d="M 2.5,6.5 C 5.47011,6.74578 6.80344,8.41245 6.5,11.5C 2.06505,12.0776 0.731712,10.4109 2.5,6.5 Z"/></g>
<g><path style="opacity:0.078" fill="#dddddd" d="M 28.5,8.5 C 27.9517,11.0838 26.285,12.0838 23.5,11.5C 23.2582,6.49221 24.9249,5.49221 28.5,8.5 Z"/></g>
<g><path style="opacity:0.078" fill="#d8d8d8" d="M 100.5,8.5 C 100.5,9.5 100.5,10.5 100.5,11.5C 98.1727,11.7529 96.1727,11.0863 94.5,9.5C 96.0842,6.02503 98.0842,5.6917 100.5,8.5 Z"/></g>
<g><path style="opacity:0.078" fill="#e5e5e5" d="M 119.5,6.5 C 123.714,9.75448 123.048,11.4211 117.5,11.5C 117.12,9.30202 117.787,7.63535 119.5,6.5 Z"/></g>
<g><path style="opacity:0.078" fill="#404040" d="M 121.5,4.5 C 122.167,5.83333 123.167,6.83333 124.5,7.5C 123.51,10.8388 124.177,11.1721 126.5,8.5C 127.048,11.0838 128.715,12.0838 131.5,11.5C 131.741,8.96644 130.741,7.29977 128.5,6.5C 128.833,5.83333 129.167,5.16667 129.5,4.5C 132.518,5.85504 133.851,8.18837 133.5,11.5C 135.099,11.2322 136.432,11.5655 137.5,12.5C 136.833,12.5 136.5,12.8333 136.5,13.5C 135.5,13.5 134.5,13.5 133.5,13.5C 132.916,16.285 133.916,17.9517 136.5,18.5C 136.5,19.1667 136.833,19.5 137.5,19.5C 137.733,21.0618 138.4,22.3951 139.5,23.5C 138.833,23.5 138.5,23.8333 138.5,24.5C 134.811,21.5162 133.144,22.5162 133.5,27.5C 132.833,26.1667 132.167,24.8333 131.5,23.5C 132.141,22.5178 132.807,21.5178 133.5,20.5C 131.829,18.4902 131.162,16.1569 131.5,13.5C 128.71,13.7776 126.21,13.1109 124,11.5C 122.079,13.0028 119.912,13.6695 117.5,13.5C 117.5,12.8333 117.5,12.1667 117.5,11.5C 123.048,11.4211 123.714,9.75448 119.5,6.5C 119.833,5.5 120.5,4.83333 121.5,4.5 Z"/></g>
<g><path style="opacity:0.078" fill="#e2e2e2" d="M 128.5,6.5 C 130.741,7.29977 131.741,8.96644 131.5,11.5C 128.715,12.0838 127.048,11.0838 126.5,8.5C 126.833,7.5 127.5,6.83333 128.5,6.5 Z"/></g>
<g><path style="opacity:0.078" fill="#dadada" d="M 149.5,6.5 C 153.161,6.35012 154.161,7.85012 152.5,11C 151.207,11.49 149.873,11.6567 148.5,11.5C 148.366,9.70848 148.699,8.04181 149.5,6.5 Z"/></g>
<g><path style="opacity:0.078" fill="#e4e4e4" d="M 159.5,6.5 C 162.084,7.0483 163.084,8.71497 162.5,11.5C 157.516,11.8558 156.516,10.1891 159.5,6.5 Z"/></g>
<g><path style="opacity:0.078" fill="#343434" d="M 59.5,-0.5 C 60.8333,-0.5 62.1667,-0.5 63.5,-0.5C 65.4003,2.24886 67.567,4.91553 70,7.5C 70.49,8.79323 70.6567,10.1266 70.5,11.5C 72.912,11.3305 75.0786,11.9972 77,13.5C 79.2097,11.8891 81.7097,11.2224 84.5,11.5C 84.5,12.1667 84.5,12.8333 84.5,13.5C 78.9524,13.5789 78.2858,15.2455 82.5,18.5C 82.1667,19.5 81.5,20.1667 80.5,20.5C 78.5,16.5 76.5,16.5 74.5,20.5C 73.609,19.8902 72.609,19.5569 71.5,19.5C 69.0246,18.3126 68.0246,16.3126 68.5,13.5C 65.6755,13.9193 63.5088,12.9193 62,10.5C 60.1516,13.0414 57.6516,14.0414 54.5,13.5C 54.8342,16.188 54.1675,18.5214 52.5,20.5C 51.5,19.1667 50.5,19.1667 49.5,20.5C 48.8333,19.1667 47.8333,18.1667 46.5,17.5C 45.8902,16.609 45.5569,15.609 45.5,14.5C 47.5452,12.0156 50.2118,11.0156 53.5,11.5C 53.3398,9.80081 53.5065,8.13414 54,6.5C 56.4536,4.55878 58.287,2.22545 59.5,-0.5 Z"/></g>
<g><path style="opacity:0.078" fill="#e3e3e3" d="M 65.5,6.5 C 68.0838,7.0483 69.0838,8.71497 68.5,11.5C 63.5162,11.8558 62.5162,10.1891 65.5,6.5 Z"/></g>
<g><path style="opacity:0.078" fill="#d6d6d6" d="M 56.5,6.5 C 59.4872,6.94782 60.4872,8.44782 59.5,11C 57.8659,11.4935 56.1992,11.6602 54.5,11.5C 54.3915,9.4862 55.0582,7.81953 56.5,6.5 Z"/></g>
<g><path style="opacity:0.078" fill="#dadada" d="M 61.5,1.5 C 65.1085,3.42397 65.2752,5.42397 62,7.5C 60.5659,7.06958 59.3992,6.23625 58.5,5C 59.7101,3.9609 60.7101,2.79423 61.5,1.5 Z"/></g>
<g><path style="opacity:0.078" fill="#ececec" d="M -0.5,11.5 C 1.47865,13.1675 3.81198,13.8342 6.5,13.5C 6.16202,16.1569 6.82869,18.4902 8.5,20.5C 6.82869,22.5098 6.16202,24.8431 6.5,27.5C 3.81198,27.1658 1.47865,27.8325 -0.5,29.5C -0.5,23.5 -0.5,17.5 -0.5,11.5 Z"/></g>
<g><path style="opacity:0.078" fill="#ececec" d="M 37.5,27.5 C 35.5853,27.2155 33.9187,27.5489 32.5,28.5C 31.8501,28.8039 31.1835,29.1373 30.5,29.5C 28.4902,27.8287 26.1569,27.162 23.5,27.5C 23.838,24.8431 23.1713,22.5098 21.5,20.5C 22.1925,19.4822 22.8592,18.4822 23.5,17.5C 23.5,16.1667 23.5,14.8333 23.5,13.5C 26.2903,13.7776 28.7903,13.1109 31,11.5C 32.8792,13.0128 35.0459,13.6795 37.5,13.5C 37.3205,15.9541 37.9872,18.1208 39.5,20C 37.8891,22.2097 37.2224,24.7097 37.5,27.5 Z"/></g>
<g><path style="opacity:0.078" fill="#393939" d="M 33.5,5.5 C 34.5,5.5 35.5,5.5 36.5,5.5C 38.9754,6.6874 39.9754,8.6874 39.5,11.5C 42.3126,11.0246 44.3126,12.0246 45.5,14.5C 45.5569,15.609 45.8902,16.609 46.5,17.5C 45.5,18.1667 44.5,18.8333 43.5,19.5C 39.9952,19.6941 39.6618,20.6941 42.5,22.5C 39.9162,23.0483 38.9162,24.715 39.5,27.5C 38.8333,27.5 38.1667,27.5 37.5,27.5C 37.2224,24.7097 37.8891,22.2097 39.5,20C 37.9872,18.1208 37.3205,15.9541 37.5,13.5C 35.0459,13.6795 32.8792,13.0128 31,11.5C 28.7903,13.1109 26.2903,13.7776 23.5,13.5C 23.5,12.8333 23.5,12.1667 23.5,11.5C 26.285,12.0838 27.9517,11.0838 28.5,8.5C 30.3059,11.3382 31.3059,11.0048 31.5,7.5C 31.8333,6.5 32.5,5.83333 33.5,5.5 Z"/></g>
<g><path style="opacity:0.078" fill="#e6e6e6" d="M 34.5,6.5 C 37.0838,7.0483 38.0838,8.71497 37.5,11.5C 32.5162,11.8558 31.5162,10.1891 34.5,6.5 Z"/></g>
<g><path style="opacity:0.078" fill="#e9e9e9" d="M 71.5,19.5 C 69.493,21.6885 68.493,24.3552 68.5,27.5C 66.901,27.2322 65.5676,27.5655 64.5,28.5C 63.7354,28.9234 62.9021,29.2568 62,29.5C 59.7903,27.8891 57.2903,27.2224 54.5,27.5C 54.8342,24.812 54.1675,22.4786 52.5,20.5C 54.1675,18.5214 54.8342,16.188 54.5,13.5C 57.6516,14.0414 60.1516,13.0414 62,10.5C 63.5088,12.9193 65.6755,13.9193 68.5,13.5C 68.0246,16.3126 69.0246,18.3126 71.5,19.5 Z"/></g>
<g><path style="opacity:0.078" fill="#e6e6e6" d="M 100.5,13.5 C 100.162,16.1569 100.829,18.4902 102.5,20.5C 100.829,22.5098 100.162,24.8431 100.5,27.5C 97.5491,27.2872 94.8825,27.9539 92.5,29.5C 90.5214,27.8325 88.188,27.1658 85.5,27.5C 85.838,24.8431 85.1713,22.5098 83.5,20.5C 85.8541,18.7539 86.8541,16.4206 86.5,13.5C 89.3245,13.9193 91.4912,12.9193 93,10.5C 94.8484,13.0414 97.3484,14.0414 100.5,13.5 Z"/></g>
<g><path style="opacity:0.078" fill="#ebebeb" d="M 131.5,23.5 C 131.5,24.8333 131.5,26.1667 131.5,27.5C 128.843,27.162 126.51,27.8287 124.5,29.5C 122.49,27.8287 120.157,27.162 117.5,27.5C 117.713,24.5491 117.046,21.8825 115.5,19.5C 117.081,17.8583 117.747,15.8583 117.5,13.5C 119.912,13.6695 122.079,13.0028 124,11.5C 126.21,13.1109 128.71,13.7776 131.5,13.5C 131.162,16.1569 131.829,18.4902 133.5,20.5C 132.807,21.5178 132.141,22.5178 131.5,23.5 Z"/></g>
<g><path style="opacity:0.078" fill="#545454" d="M 147.5,7.5 C 147.813,11.0419 147.479,14.3752 146.5,17.5C 146.5,16.1667 146.5,14.8333 146.5,13.5C 145.5,13.5 144.5,13.5 143.5,13.5C 143.5,12.8333 143.167,12.5 142.5,12.5C 143.568,11.5655 144.901,11.2322 146.5,11.5C 146.232,9.90097 146.566,8.56764 147.5,7.5 Z"/></g>
<g><path style="opacity:0.078" fill="#e9e9e9" d="M 163.5,17.5 C 163.923,18.2646 164.257,19.0979 164.5,20C 162.889,22.2097 162.222,24.7097 162.5,27.5C 159.549,27.2872 156.882,27.9539 154.5,29.5C 153.01,27.7202 151.01,27.0535 148.5,27.5C 148.713,24.5491 148.046,21.8825 146.5,19.5C 148.28,18.0101 148.946,16.0101 148.5,13.5C 151.408,13.7377 153.742,12.7377 155.5,10.5C 157.246,12.8541 159.579,13.8541 162.5,13.5C 162.232,15.099 162.566,16.4324 163.5,17.5 Z"/></g>
<g><path style="opacity:0.078" fill="#e5e5e5" d="M 187.5,10.5 C 187.5,16.8333 187.5,23.1667 187.5,29.5C 185.118,27.9539 182.451,27.2872 179.5,27.5C 179.838,24.8431 179.171,22.5098 177.5,20.5C 179.171,18.4902 179.838,16.1569 179.5,13.5C 182.788,13.9844 185.455,12.9844 187.5,10.5 Z"/></g>
<g><path style="opacity:0.078" fill="#e3e3e3" d="M 13.5,14.5 C 13.2671,16.0618 12.6005,17.3951 11.5,18.5C 8.91618,17.9517 7.91618,16.285 8.5,13.5C 10.2915,13.366 11.9582,13.6993 13.5,14.5 Z"/></g>
<g><path style="opacity:0.078" fill="#dcdcdc" d="M 21.5,17.5 C 20.609,18.1098 19.609,18.4431 18.5,18.5C 15.6876,14.2766 17.0209,12.6099 22.5,13.5C 22.5674,14.9587 22.2341,16.2921 21.5,17.5 Z"/></g>
<g><path style="opacity:0.078" fill="#e6e6e6" d="M 39.5,13.5 C 40.8734,13.3433 42.2068,13.51 43.5,14C 44.474,16.702 43.474,18.0354 40.5,18C 39.6198,16.6439 39.2865,15.1439 39.5,13.5 Z"/></g>
<g><path style="opacity:0.078" fill="#d6d6d6" d="M 49.5,13.5 C 50.8333,13.5 52.1667,13.5 53.5,13.5C 53.9899,15.9484 53.1566,17.615 51,18.5C 48.3894,17.5001 47.8894,15.8334 49.5,13.5 Z"/></g>
<g><path style="opacity:0.078" fill="#dcdcdc" d="M 70.5,13.5 C 74.1378,12.7366 75.6378,14.0699 75,17.5C 71.3307,19.0093 69.8307,17.6759 70.5,13.5 Z"/></g>
<g><path style="opacity:0.078" fill="#e5e5e5" d="M 84.5,13.5 C 84.8799,15.698 84.2132,17.3646 82.5,18.5C 78.2858,15.2455 78.9524,13.5789 84.5,13.5 Z"/></g>
<g><path style="opacity:0.078" fill="#d8d8d8" d="M 101.5,13.5 C 105.286,12.9794 106.953,14.3127 106.5,17.5C 102.949,18.8698 101.282,17.5365 101.5,13.5 Z"/></g>
<g><path style="opacity:0.078" fill="#e2e2e2" d="M 136.5,13.5 C 138.957,15.0009 138.957,16.6676 136.5,18.5C 133.916,17.9517 132.916,16.285 133.5,13.5C 134.5,13.5 135.5,13.5 136.5,13.5 Z"/></g>
<g><path style="opacity:0.078" fill="#e2e2e2" d="M 143.5,13.5 C 144.5,13.5 145.5,13.5 146.5,13.5C 146.5,14.8333 146.5,16.1667 146.5,17.5C 145.85,17.8039 145.183,18.1373 144.5,18.5C 141.25,17.0858 140.916,15.4191 143.5,13.5 Z"/></g>
<g><path style="opacity:0.078" fill="#e7e7e7" d="M 167.5,18.5 C 165.973,18.573 164.973,17.9063 164.5,16.5C 164.5,15.5 164.5,14.5 164.5,13.5C 169.484,13.1442 170.484,14.8109 167.5,18.5 Z"/></g>
<g><path style="opacity:0.078" fill="#d8d8d8" d="M 178.5,13.5 C 178.541,18.7062 176.541,19.7062 172.5,16.5C 173.687,14.0246 175.687,13.0246 178.5,13.5 Z"/></g>
<g><path style="opacity:0.078" fill="#dcdcdc" d="M 14.5,23.5 C 13.3995,22.3951 12.7329,21.0618 12.5,19.5C 12.8656,18.3054 13.699,17.6387 15,17.5C 18.2752,19.576 18.1085,21.576 14.5,23.5 Z"/></g>
<g><path style="opacity:0.078" fill="#dbdbdb" d="M 142.5,19.5 C 142.262,21.4044 141.262,22.7377 139.5,23.5C 138.4,22.3951 137.733,21.0618 137.5,19.5C 139.167,16.8333 140.833,16.8333 142.5,19.5 Z"/></g>
<g><path style="opacity:0.078" fill="#d7d7d7" d="M 46.5,17.5 C 47.8333,18.1667 48.8333,19.1667 49.5,20.5C 46.9147,24.5552 44.9147,24.2219 43.5,19.5C 44.5,18.8333 45.5,18.1667 46.5,17.5 Z"/></g>
<g><path style="opacity:0.078" fill="#dadada" d="M 80.5,20.5 C 78.5,24.5 76.5,24.5 74.5,20.5C 76.5,16.5 78.5,16.5 80.5,20.5 Z"/></g>
<g><path style="opacity:0.078" fill="#e2e2e2" d="M 105.5,20.5 C 105.833,19.8333 106.167,19.1667 106.5,18.5C 108.802,17.1402 110.468,17.8068 111.5,20.5C 110.855,21.646 110.022,22.646 109,23.5C 107.961,22.2899 106.794,21.2899 105.5,20.5 Z"/></g>
<g><path style="opacity:0.078" fill="#e4e4e4" d="M 13.5,24.5 C 12.5994,26.7271 10.9328,27.7271 8.5,27.5C 8.5,25.8333 8.5,24.1667 8.5,22.5C 10.5138,22.3915 12.1805,23.0582 13.5,24.5 Z"/></g>
<g><path style="opacity:0.078" fill="#e8e8e8" d="M 18.5,22.5 C 21.0838,23.0483 22.0838,24.715 21.5,27.5C 20.5,27.5 19.5,27.5 18.5,27.5C 18.0472,26.5416 17.3805,25.7083 16.5,25C 17.3805,24.2917 18.0472,23.4584 18.5,22.5 Z"/></g>
<g><path style="opacity:0.078" fill="#dbdbdb" d="M 42.5,22.5 C 45.5078,26.0751 44.5078,27.7418 39.5,27.5C 38.9162,24.715 39.9162,23.0483 42.5,22.5 Z"/></g>
<g><path style="opacity:0.078" fill="#2a2a2a" d="M 91.5,-0.5 C 92.5,-0.5 93.5,-0.5 94.5,-0.5C 96.8333,2.16667 99.1667,4.83333 101.5,7.5C 100.833,7.5 100.5,7.83333 100.5,8.5C 98.0842,5.6917 96.0842,6.02503 94.5,9.5C 96.1727,11.0863 98.1727,11.7529 100.5,11.5C 100.5,12.1667 100.5,12.8333 100.5,13.5C 97.3484,14.0414 94.8484,13.0414 93,10.5C 91.4912,12.9193 89.3245,13.9193 86.5,13.5C 86.8541,16.4206 85.8541,18.7539 83.5,20.5C 85.1713,22.5098 85.838,24.8431 85.5,27.5C 88.188,27.1658 90.5214,27.8325 92.5,29.5C 92.5,30.1667 92.1667,30.5 91.5,30.5C 90.4693,29.645 89.3026,28.9783 88,28.5C 87.2352,28.5699 86.7352,28.9033 86.5,29.5C 85.8333,30.5 85.1667,31.5 84.5,32.5C 84.5,31.1667 84.5,29.8333 84.5,28.5C 81.8431,28.838 79.5098,28.1713 77.5,26.5C 76.4822,27.1925 75.4822,27.8592 74.5,28.5C 71.1667,28.5 67.8333,28.5 64.5,28.5C 65.5676,27.5655 66.901,27.2322 68.5,27.5C 68.493,24.3552 69.493,21.6885 71.5,19.5C 72.609,19.5569 73.609,19.8902 74.5,20.5C 76.5,24.5 78.5,24.5 80.5,20.5C 81.5,20.1667 82.1667,19.5 82.5,18.5C 84.2132,17.3646 84.8799,15.698 84.5,13.5C 84.5,12.8333 84.5,12.1667 84.5,11.5C 84.3573,9.73759 84.6906,8.07092 85.5,6.5C 87.7525,4.29034 89.7525,1.95701 91.5,-0.5 Z"/></g>
<g><path style="opacity:0.078" fill="#d6d6d6" d="M 72.5,21.5 C 77.793,24.9405 77.1263,26.9405 70.5,27.5C 70.2525,25.1417 70.9192,23.1417 72.5,21.5 Z"/></g>
<g><path style="opacity:0.078" fill="#e3e3e3" d="M 87.5,6.5 C 93.0047,9.17117 92.6713,10.8378 86.5,11.5C 86.366,9.70848 86.6993,8.04181 87.5,6.5 Z"/></g>
<g><path style="opacity:0.078" fill="#dddddd" d="M 92.5,1.5 C 97.1133,3.04667 97.4467,5.04667 93.5,7.5C 90.025,5.91581 89.6917,3.91581 92.5,1.5 Z"/></g>
<g><path style="opacity:0.078" fill="#d9d9d9" d="M 81.5,21.5 C 83.9754,22.6874 84.9754,24.6874 84.5,27.5C 78.5752,27.3186 77.5752,25.3186 81.5,21.5 Z"/></g>
<g><path style="opacity:0.078" fill="#d9d9d9" d="M 103.5,22.5 C 107.359,23.2784 108.025,24.9451 105.5,27.5C 104.167,27.5 102.833,27.5 101.5,27.5C 101.12,25.302 101.787,23.6354 103.5,22.5 Z"/></g>
<g><path style="opacity:0.078" fill="#dcdcdc" d="M 112.5,22.5 C 115.084,23.0483 116.084,24.715 115.5,27.5C 114.167,27.5 112.833,27.5 111.5,27.5C 109.977,25.4143 110.31,23.7476 112.5,22.5 Z"/></g>
<g><path style="opacity:0.078" fill="#3b3b3b" d="M 115.5,19.5 C 117.046,21.8825 117.713,24.5491 117.5,27.5C 120.157,27.162 122.49,27.8287 124.5,29.5C 126.51,27.8287 128.843,27.162 131.5,27.5C 131.5,26.1667 131.5,24.8333 131.5,23.5C 132.167,24.8333 132.833,26.1667 133.5,27.5C 135.933,27.7271 137.599,26.7271 138.5,24.5C 138.5,23.8333 138.833,23.5 139.5,23.5C 141.262,22.7377 142.262,21.4044 142.5,19.5C 143.151,20.0906 143.818,20.7573 144.5,21.5C 145.182,20.7573 145.849,20.0906 146.5,19.5C 148.046,21.8825 148.713,24.5491 148.5,27.5C 151.01,27.0535 153.01,27.7202 154.5,29.5C 154.527,31.1993 155.194,32.5326 156.5,33.5C 154.804,33.6854 153.471,34.5187 152.5,36C 153.71,37.0391 154.71,38.2058 155.5,39.5C 154.833,39.5 154.5,39.8333 154.5,40.5C 154.167,40.5 153.833,40.5 153.5,40.5C 151.539,38.0365 149.372,35.7032 147,33.5C 146.51,32.2068 146.343,30.8734 146.5,29.5C 143.675,29.9193 141.509,28.9193 140,26.5C 138.491,28.9193 136.325,29.9193 133.5,29.5C 133.657,30.8734 133.49,32.2068 133,33.5C 130.628,35.7032 128.461,38.0365 126.5,40.5C 125.167,40.5 123.833,40.5 122.5,40.5C 120.539,38.0365 118.372,35.7032 116,33.5C 115.51,32.2068 115.343,30.8734 115.5,29.5C 113.901,29.7678 112.568,29.4345 111.5,28.5C 111.5,28.1667 111.5,27.8333 111.5,27.5C 112.833,27.5 114.167,27.5 115.5,27.5C 116.084,24.715 115.084,23.0483 112.5,22.5C 113.5,21.5 114.5,20.5 115.5,19.5 Z"/></g>
<g><path style="opacity:0.078" fill="#e9e9e9" d="M 138.5,24.5 C 137.599,26.7271 135.933,27.7271 133.5,27.5C 133.144,22.5162 134.811,21.5162 138.5,24.5 Z"/></g>
<g><path style="opacity:0.078" fill="#e8e8e8" d="M 143.5,22.5 C 146.084,23.0483 147.084,24.715 146.5,27.5C 142.143,27.2221 141.143,25.5554 143.5,22.5 Z"/></g>
<g><path style="opacity:0.078" fill="#2d2d2d" d="M 185.5,-0.5 C 186.167,-0.5 186.833,-0.5 187.5,-0.5C 187.5,0.166667 187.5,0.833333 187.5,1.5C 182.402,3.8479 182.402,5.8479 187.5,7.5C 187.5,8.5 187.5,9.5 187.5,10.5C 185.455,12.9844 182.788,13.9844 179.5,13.5C 179.838,16.1569 179.171,18.4902 177.5,20.5C 179.171,22.5098 179.838,24.8431 179.5,27.5C 182.451,27.2872 185.118,27.9539 187.5,29.5C 187.5,30.5 187.5,31.5 187.5,32.5C 186.038,33.4577 184.705,34.6244 183.5,36C 184.705,37.3756 186.038,38.5423 187.5,39.5C 187.5,39.8333 187.5,40.1667 187.5,40.5C 186.833,40.5 186.167,40.5 185.5,40.5C 183.539,38.0365 181.372,35.7032 179,33.5C 178.506,31.8659 178.34,30.1992 178.5,28.5C 175.843,28.838 173.51,28.1713 171.5,26.5C 169.49,28.1713 167.157,28.838 164.5,28.5C 164.66,30.1992 164.494,31.8659 164,33.5C 161.628,35.7032 159.461,38.0365 157.5,40.5C 156.5,40.5 155.5,40.5 154.5,40.5C 154.5,39.8333 154.833,39.5 155.5,39.5C 158.855,37.8147 159.189,35.8147 156.5,33.5C 155.194,32.5326 154.527,31.1993 154.5,29.5C 156.882,27.9539 159.549,27.2872 162.5,27.5C 162.222,24.7097 162.889,22.2097 164.5,20C 164.257,19.0979 163.923,18.2646 163.5,17.5C 163.5,16.8333 163.833,16.5 164.5,16.5C 164.973,17.9063 165.973,18.573 167.5,18.5C 168.167,18.5 168.5,18.8333 168.5,19.5C 169.874,24.1972 171.874,24.5305 174.5,20.5C 173.807,19.4822 173.141,18.4822 172.5,17.5C 172.5,17.1667 172.5,16.8333 172.5,16.5C 176.541,19.7062 178.541,18.7062 178.5,13.5C 178.5,12.8333 178.5,12.1667 178.5,11.5C 178.34,9.80081 178.506,8.13414 179,6.5C 181.372,4.29681 183.539,1.96348 185.5,-0.5 Z"/></g>
<g><path style="opacity:0.078" fill="#d9d9d9" d="M 175.5,21.5 C 177.975,22.6874 178.975,24.6874 178.5,27.5C 172.575,27.3186 171.575,25.3186 175.5,21.5 Z"/></g>
<g><path style="opacity:0.078" fill="#d7d7d7" d="M 166.5,21.5 C 170.857,25.095 170.191,27.095 164.5,27.5C 164.253,25.1417 164.919,23.1417 166.5,21.5 Z"/></g>
<g><path style="opacity:0.078" fill="#d9d9d9" d="M 172.5,17.5 C 173.141,18.4822 173.807,19.4822 174.5,20.5C 171.874,24.5305 169.874,24.1972 168.5,19.5C 169.605,18.3995 170.938,17.7329 172.5,17.5 Z"/></g>
<g><path style="opacity:0.078" fill="#d2d2d2" d="M 181.5,6.5 C 184.487,6.94782 185.487,8.44782 184.5,11C 182.866,11.4935 181.199,11.6602 179.5,11.5C 179.392,9.4862 180.058,7.81953 181.5,6.5 Z"/></g>
<g><path style="opacity:0.078" fill="#313131" d="M 122.5,-0.5 C 123.5,-0.5 124.5,-0.5 125.5,-0.5C 126.833,1.16667 128.167,2.83333 129.5,4.5C 129.167,5.16667 128.833,5.83333 128.5,6.5C 127.5,6.83333 126.833,7.5 126.5,8.5C 124.177,11.1721 123.51,10.8388 124.5,7.5C 128.473,5.53975 128.473,3.53975 124.5,1.5C 123.145,2.18819 122.145,3.18819 121.5,4.5C 120.5,4.83333 119.833,5.5 119.5,6.5C 117.787,7.63535 117.12,9.30202 117.5,11.5C 117.5,12.1667 117.5,12.8333 117.5,13.5C 117.747,15.8583 117.081,17.8583 115.5,19.5C 114.5,20.5 113.5,21.5 112.5,22.5C 110.31,23.7476 109.977,25.4143 111.5,27.5C 111.5,27.8333 111.5,28.1667 111.5,28.5C 110.065,26.5989 108.398,26.2655 106.5,27.5C 106.167,27.5 105.833,27.5 105.5,27.5C 108.025,24.9451 107.359,23.2784 103.5,22.5C 104.167,21.8333 104.833,21.1667 105.5,20.5C 106.794,21.2899 107.961,22.2899 109,23.5C 110.022,22.646 110.855,21.646 111.5,20.5C 110.468,17.8068 108.802,17.1402 106.5,18.5C 106.5,18.1667 106.5,17.8333 106.5,17.5C 106.953,14.3127 105.286,12.9794 101.5,13.5C 101.5,12.8333 101.5,12.1667 101.5,11.5C 104.652,10.9586 107.152,11.9586 109,14.5C 110.509,12.0807 112.675,11.0807 115.5,11.5C 115.343,10.1266 115.51,8.79323 116,7.5C 118.782,5.22949 120.949,2.56282 122.5,-0.5 Z"/></g>
<g><path style="opacity:0.078" fill="#e5e5e5" d="M 111.5,13.5 C 112.833,13.5 114.167,13.5 115.5,13.5C 115.465,19.0241 113.799,19.6908 110.5,15.5C 110.863,14.8165 111.196,14.1499 111.5,13.5 Z"/></g>
<g><path style="opacity:0.078" fill="#d8d8d8" d="M 124.5,7.5 C 123.167,6.83333 122.167,5.83333 121.5,4.5C 122.145,3.18819 123.145,2.18819 124.5,1.5C 128.473,3.53975 128.473,5.53975 124.5,7.5 Z"/></g>
<g><path style="opacity:0.078" fill="#f1f1f1" d="M 17.5,28.5 C 18.5676,29.4345 19.901,29.7678 21.5,29.5C 21.3433,30.8734 21.51,32.2068 22,33.5C 24.3722,35.7032 26.5389,38.0365 28.5,40.5C 19.5,40.5 10.5,40.5 1.5,40.5C 3.46114,38.0365 5.62781,35.7032 8,33.5C 8.49001,32.2068 8.65668,30.8734 8.5,29.5C 11.3245,29.9193 13.4912,28.9193 15,26.5C 15.7083,27.3805 16.5416,28.0472 17.5,28.5 Z"/></g>
<g><path style="opacity:0.078" fill="#404040" d="M 21.5,17.5 C 22.1667,17.5 22.8333,17.5 23.5,17.5C 22.8592,18.4822 22.1925,19.4822 21.5,20.5C 23.1713,22.5098 23.838,24.8431 23.5,27.5C 26.1569,27.162 28.4902,27.8287 30.5,29.5C 31.1835,29.1373 31.8501,28.8039 32.5,28.5C 36.1667,28.5 39.8333,28.5 43.5,28.5C 42.4324,29.4345 41.099,29.7678 39.5,29.5C 39.6567,30.8734 39.49,32.2068 39,33.5C 36.6278,35.7032 34.4611,38.0365 32.5,40.5C 31.1667,40.5 29.8333,40.5 28.5,40.5C 26.5389,38.0365 24.3722,35.7032 22,33.5C 21.51,32.2068 21.3433,30.8734 21.5,29.5C 19.901,29.7678 18.5676,29.4345 17.5,28.5C 17.5,27.8333 17.8333,27.5 18.5,27.5C 19.5,27.5 20.5,27.5 21.5,27.5C 22.0838,24.715 21.0838,23.0483 18.5,22.5C 19.0906,21.8485 19.7573,21.1818 20.5,20.5C 19.7573,19.8182 19.0906,19.1515 18.5,18.5C 19.609,18.4431 20.609,18.1098 21.5,17.5 Z"/></g>
<g><path style="opacity:0.078" fill="#e9e9e9" d="M 60.5,40.5 C 51.1667,40.5 41.8333,40.5 32.5,40.5C 34.4611,38.0365 36.6278,35.7032 39,33.5C 39.49,32.2068 39.6567,30.8734 39.5,29.5C 41.099,29.7678 42.4324,29.4345 43.5,28.5C 44.4822,27.8592 45.4822,27.1925 46.5,26.5C 48.5098,28.1713 50.8431,28.838 53.5,28.5C 53.3398,30.1992 53.5065,31.8659 54,33.5C 56.3722,35.7032 58.5389,38.0365 60.5,40.5 Z"/></g>
<g><path style="opacity:0.078" fill="#eaeaea" d="M 84.5,32.5 C 86.8333,35.1667 89.1667,37.8333 91.5,40.5C 82.1667,40.5 72.8333,40.5 63.5,40.5C 65.4611,38.0365 67.6278,35.7032 70,33.5C 70.49,32.2068 70.6567,30.8734 70.5,29.5C 72.099,29.7678 73.4324,29.4345 74.5,28.5C 75.4822,27.8592 76.4822,27.1925 77.5,26.5C 79.5098,28.1713 81.8431,28.838 84.5,28.5C 84.5,29.8333 84.5,31.1667 84.5,32.5 Z"/></g>
<g><path style="opacity:0.078" fill="#e9e9e9" d="M 111.5,28.5 C 112.568,29.4345 113.901,29.7678 115.5,29.5C 115.343,30.8734 115.51,32.2068 116,33.5C 118.372,35.7032 120.539,38.0365 122.5,40.5C 113.167,40.5 103.833,40.5 94.5,40.5C 96.4611,38.0365 98.6278,35.7032 101,33.5C 101.494,31.8659 101.66,30.1992 101.5,28.5C 103.415,28.7845 105.081,28.4511 106.5,27.5C 108.398,26.2655 110.065,26.5989 111.5,28.5 Z"/></g>
<g><path style="opacity:0.078" fill="#f1f1f1" d="M 153.5,40.5 C 144.5,40.5 135.5,40.5 126.5,40.5C 128.461,38.0365 130.628,35.7032 133,33.5C 133.49,32.2068 133.657,30.8734 133.5,29.5C 136.325,29.9193 138.491,28.9193 140,26.5C 141.509,28.9193 143.675,29.9193 146.5,29.5C 146.343,30.8734 146.51,32.2068 147,33.5C 149.372,35.7032 151.539,38.0365 153.5,40.5 Z"/></g>
<g><path style="opacity:0.078" fill="#e8e8e8" d="M 185.5,40.5 C 176.167,40.5 166.833,40.5 157.5,40.5C 159.461,38.0365 161.628,35.7032 164,33.5C 164.494,31.8659 164.66,30.1992 164.5,28.5C 167.157,28.838 169.49,28.1713 171.5,26.5C 173.51,28.1713 175.843,28.838 178.5,28.5C 178.34,30.1992 178.506,31.8659 179,33.5C 181.372,35.7032 183.539,38.0365 185.5,40.5 Z"/></g>
<g><path style="opacity:0.078" fill="#e2e2e2" d="M 1.5,29.5 C 3.16667,29.5 4.83333,29.5 6.5,29.5C 4.83333,36.1667 3.16667,36.1667 1.5,29.5 Z"/></g>
<g><path style="opacity:0.078" fill="#e3e3e3" d="M 23.5,29.5 C 25.1667,29.5 26.8333,29.5 28.5,29.5C 26.8333,36.1667 25.1667,36.1667 23.5,29.5 Z"/></g>
<g><path style="opacity:0.078" fill="#e0e0e0" d="M 33.5,29.5 C 34.8333,29.5 36.1667,29.5 37.5,29.5C 37.4652,35.0241 35.7985,35.6908 32.5,31.5C 32.8627,30.8165 33.1961,30.1499 33.5,29.5 Z"/></g>
<g><path style="opacity:0.078" fill="#d3d3d3" d="M 91.5,30.5 C 88.8288,36.0047 87.1622,35.6713 86.5,29.5C 86.7352,28.9033 87.2352,28.5699 88,28.5C 89.3026,28.9783 90.4693,29.645 91.5,30.5 Z"/></g>
<g><path style="opacity:0.078" fill="#e1e1e1" d="M 117.5,29.5 C 118.873,29.3433 120.207,29.51 121.5,30C 122.474,32.702 121.474,34.0354 118.5,34C 117.62,32.6439 117.286,31.1439 117.5,29.5 Z"/></g>
<g><path style="opacity:0.078" fill="#e5e5e5" d="M 126.5,29.5 C 128.167,29.5 129.833,29.5 131.5,29.5C 129.833,36.1667 128.167,36.1667 126.5,29.5 Z"/></g>
<g><path style="opacity:0.078" fill="#e1e1e1" d="M 148.5,29.5 C 150.167,29.5 151.833,29.5 153.5,29.5C 151.833,36.1667 150.167,36.1667 148.5,29.5 Z"/></g>
<g><path style="opacity:0.078" fill="#e0e0e0" d="M 158.5,29.5 C 159.833,29.5 161.167,29.5 162.5,29.5C 162.465,35.0241 160.799,35.6908 157.5,31.5C 157.863,30.8165 158.196,30.1499 158.5,29.5 Z"/></g>
<g><path style="opacity:0.078" fill="#d9d9d9" d="M 180.5,29.5 C 181.873,29.3433 183.207,29.51 184.5,30C 185.474,32.702 184.474,34.0354 181.5,34C 180.62,32.6439 180.286,31.1439 180.5,29.5 Z"/></g>
<g><path style="opacity:0.078" fill="#e1e1e1" d="M 29.5,33.5 C 34.2183,34.3189 34.5516,35.9855 30.5,38.5C 27.1396,37.2095 26.8063,35.5428 29.5,33.5 Z"/></g>
<g><path style="opacity:0.078" fill="#dadada" d="M 156.5,33.5 C 159.189,35.8147 158.855,37.8147 155.5,39.5C 154.71,38.2058 153.71,37.0391 152.5,36C 153.471,34.5187 154.804,33.6854 156.5,33.5 Z"/></g>
<g><path style="opacity:0.039" fill="#d4d4d4" d="M 187.5,32.5 C 187.5,34.8333 187.5,37.1667 187.5,39.5C 186.038,38.5423 184.705,37.3756 183.5,36C 184.705,34.6244 186.038,33.4577 187.5,32.5 Z"/></g>
<g><path style="opacity:0.078" fill="#eaeaea" d="M -0.5,33.5 C 3.5,35.1667 3.5,36.8333 -0.5,38.5C -0.5,36.8333 -0.5,35.1667 -0.5,33.5 Z"/></g>
<g><path style="opacity:0.078" fill="#2c2c2c" d="M 43.5,19.5 C 44.9147,24.2219 46.9147,24.5552 49.5,20.5C 50.5,19.1667 51.5,19.1667 52.5,20.5C 54.1675,22.4786 54.8342,24.812 54.5,27.5C 57.2903,27.2224 59.7903,27.8891 62,29.5C 62.9021,29.2568 63.7354,28.9234 64.5,28.5C 67.8333,28.5 71.1667,28.5 74.5,28.5C 73.4324,29.4345 72.099,29.7678 70.5,29.5C 70.6567,30.8734 70.49,32.2068 70,33.5C 67.6278,35.7032 65.4611,38.0365 63.5,40.5C 62.5,40.5 61.5,40.5 60.5,40.5C 58.5389,38.0365 56.3722,35.7032 54,33.5C 53.5065,31.8659 53.3398,30.1992 53.5,28.5C 50.8431,28.838 48.5098,28.1713 46.5,26.5C 45.4822,27.1925 44.4822,27.8592 43.5,28.5C 39.8333,28.5 36.1667,28.5 32.5,28.5C 33.9187,27.5489 35.5853,27.2155 37.5,27.5C 38.1667,27.5 38.8333,27.5 39.5,27.5C 44.5078,27.7418 45.5078,26.0751 42.5,22.5C 39.6618,20.6941 39.9952,19.6941 43.5,19.5 Z"/></g>
<g><path style="opacity:0.078" fill="#d8d8d8" d="M 61.5,32.5 C 62.9616,33.4577 64.2949,34.6244 65.5,36C 64.3333,37.1667 63.1667,38.3333 62,39.5C 60.8333,38.3333 59.6667,37.1667 58.5,36C 59.7101,34.9609 60.7101,33.7942 61.5,32.5 Z"/></g>
<g><path style="opacity:0.078" fill="#dfdfdf" d="M 64.5,29.5 C 65.8333,29.5 67.1667,29.5 68.5,29.5C 68.4652,35.0241 66.7985,35.6908 63.5,31.5C 63.8627,30.8165 64.1961,30.1499 64.5,29.5 Z"/></g>
<g><path style="opacity:0.078" fill="#d9d9d9" d="M 55.5,29.5 C 56.8734,29.3433 58.2068,29.51 59.5,30C 60.474,32.702 59.474,34.0354 56.5,34C 55.6198,32.6439 55.2865,31.1439 55.5,29.5 Z"/></g>
<g><path style="opacity:0.078" fill="#d5d5d5" d="M 50.5,21.5 C 52.9754,22.6874 53.9754,24.6874 53.5,27.5C 47.5752,27.3186 46.5752,25.3186 50.5,21.5 Z"/></g>
<g><path style="opacity:0.078" fill="#232323" d="M 101.5,7.5 C 101.5,8.83333 101.5,10.1667 101.5,11.5C 101.5,12.1667 101.5,12.8333 101.5,13.5C 101.282,17.5365 102.949,18.8698 106.5,17.5C 106.5,17.8333 106.5,18.1667 106.5,18.5C 106.167,19.1667 105.833,19.8333 105.5,20.5C 104.833,21.1667 104.167,21.8333 103.5,22.5C 101.787,23.6354 101.12,25.302 101.5,27.5C 102.833,27.5 104.167,27.5 105.5,27.5C 105.833,27.5 106.167,27.5 106.5,27.5C 105.081,28.4511 103.415,28.7845 101.5,28.5C 101.66,30.1992 101.494,31.8659 101,33.5C 98.6278,35.7032 96.4611,38.0365 94.5,40.5C 93.5,40.5 92.5,40.5 91.5,40.5C 89.1667,37.8333 86.8333,35.1667 84.5,32.5C 85.1667,31.5 85.8333,30.5 86.5,29.5C 87.1622,35.6713 88.8288,36.0047 91.5,30.5C 92.1667,30.5 92.5,30.1667 92.5,29.5C 94.8825,27.9539 97.5491,27.2872 100.5,27.5C 100.162,24.8431 100.829,22.5098 102.5,20.5C 100.829,18.4902 100.162,16.1569 100.5,13.5C 100.5,12.8333 100.5,12.1667 100.5,11.5C 100.5,10.5 100.5,9.5 100.5,8.5C 100.5,7.83333 100.833,7.5 101.5,7.5 Z"/></g>
<g><path style="opacity:0.078" fill="#d6d6d6" d="M 92.5,32.5 C 93.9616,33.4577 95.2949,34.6244 96.5,36C 95.3333,37.1667 94.1667,38.3333 93,39.5C 91.8333,38.3333 90.6667,37.1667 89.5,36C 90.7101,34.9609 91.7101,33.7942 92.5,32.5 Z"/></g>
<g><path style="opacity:0.078" fill="#c6c6c6" d="M 96.5,28.5 C 97.8333,28.5 99.1667,28.5 100.5,28.5C 100.978,31.2776 99.9783,33.2776 97.5,34.5C 94.025,32.9158 93.6917,30.9158 96.5,28.5 Z"/></g>
<g><path style="opacity:0.078" fill="#dfdfdf" d="M 122.5,33.5 C 125.767,33.4239 127.101,34.7573 126.5,37.5C 122.483,38.7903 121.15,37.4569 122.5,33.5 Z"/></g>
</svg>
